<svg xmlns="http://www.w3.org/2000/svg" viewBox="0 0 48 48"><defs><style>.cls-1{fill:#fff;}.cls-2{fill:#0cb8d8;}</style></defs><title>CCTV 48</title><g id="Layer_2" data-name="Layer 2"><g id="google_site" data-name="google site"><rect class="cls-1" width="48" height="48" rx="8.31"/><path class="cls-2" d="M5.51,28.13a1,1,0,0,1,1-.44c.77,0,1.54,0,2.31,0,.55,0,.79.24.79.79v1.28a3.5,3.5,0,0,1,2.36,1.82.29.29,0,0,0,.25.14h8.7a.85.85,0,0,0,.15,0v-.63c0-.83,0-1.66,0-2.49a.63.63,0,0,0-.19-.42,2.67,2.67,0,0,1-.76-2.95c.14-.41.3-.81.46-1.26l-1.69-.63-4.44-1.62c-.59-.22-.73-.52-.51-1.12s.4-1.11.62-1.7L14,18.68l-2.57-.94a.68.68,0,0,1-.47-1q1.46-4,2.93-8c.2-.55.51-.67,1.09-.46L26.6,12.6l15.18,5.62.2.08a.66.66,0,0,1,.51.63.69.69,0,0,1-.43.66l-3.43,1.76-.56.29a4.07,4.07,0,0,1-4.44,5.63c-.06.15-.12.31-.17.46-.23.62-.53.76-1.14.54l-5-1.84-.47-.17c-.15.39-.3.77-.43,1.15a2.92,2.92,0,0,1-1.16,1.48.6.6,0,0,0-.19.44c0,2.27,0,4.55,0,6.83a3.19,3.19,0,0,1-.12.92,2,2,0,0,1-3.9-.53c0-.24,0-.48,0-.76l-.41,0H12.31a.49.49,0,0,0-.5.29,3.11,3.11,0,0,1-1.9,1.56.4.4,0,0,0-.35.5c0,.31,0,.63,0,.94a.66.66,0,0,1-.7.74H6.22a.8.8,0,0,1-.71-.46Zm7-11.49.06.05q6.61,2.44,13.23,4.86a.47.47,0,0,0,.36-.09c.54-.48,1.07-1,1.58-1.48a.85.85,0,0,1,1-.21l5.51,2a.74.74,0,0,0,.68,0l4.45-2.3.81-.42L15,9.73Zm21.28,6.42-5.13-1.87a.41.41,0,0,0-.33.09c-.52.48-1.05,1-1.55,1.46a.89.89,0,0,1-1.07.22l-8.19-3-1.7-.62-.46,1.26,17,6.26ZM23.68,34.4V33.09H12.31V34.4Zm-15.48,4V29.06H6.88v9.38ZM25.58,25.79,21.79,24.4c-.1.28-.19.51-.28.74s-.18.45-.24.68A1.3,1.3,0,0,0,22,27.34c.47.2,1,.38,1.45.54A1.28,1.28,0,0,0,25,27.24C25.23,26.79,25.38,26.3,25.58,25.79Zm11.24-3.51a3.72,3.72,0,0,1-.4.2,2.49,2.49,0,0,0-1.78,2A12.43,12.43,0,0,1,34.12,26,2.64,2.64,0,0,0,36.82,22.28Zm-27.25,14a1.77,1.77,0,0,0,1.25-1.38,9.32,9.32,0,0,0,0-2.36,1.75,1.75,0,0,0-1.25-1.39ZM22.38,29v2.76h1.31v-2.4Zm0,6.83c0,.48-.13,1,.37,1.24a.6.6,0,0,0,.73-.07c.38-.33.24-.76.25-1.17Z"/><path class="cls-2" d="M21.74,18.65l-1.25-.46L21,16.93l1.26.46Z"/><path class="cls-2" d="M23.47,17.86l1.26.46-.46,1.26L23,19.12Z"/><path class="cls-2" d="M19.68,16.46l-.46,1.26L18,17.27,18.42,16Z"/></g></g></svg>