<svg xmlns="http://www.w3.org/2000/svg" viewBox="0 0 144.07 144.07"><defs><style>.cls-1{fill:#fff;}.cls-2{fill:#0cb8d8;}</style></defs><title>CCTV 144</title><g id="Layer_2" data-name="Layer 2"><g id="google_site" data-name="google site"><rect class="cls-1" width="144.07" height="144.07" rx="22.77"/><path class="cls-2" d="M22,83.22A2.65,2.65,0,0,1,24.56,82c2.09.07,4.17,0,6.26,0,1.49,0,2.13.65,2.14,2.15,0,1.14,0,2.27,0,3.45a9.42,9.42,0,0,1,6.37,5A.91.91,0,0,0,40,93c7.85,0,15.7,0,23.55,0a2.3,2.3,0,0,0,.4-.11v-1.7c0-2.25,0-4.5,0-6.74a1.79,1.79,0,0,0-.53-1.14,7.22,7.22,0,0,1-2-8c.38-1.1.79-2.19,1.24-3.4L58,70.16,46,65.77c-1.6-.58-2-1.38-1.37-3l1.67-4.58c-.46-.19-.86-.36-1.28-.51L38.1,55.09a1.84,1.84,0,0,1-1.27-2.69q4-10.82,7.93-21.61c.54-1.47,1.38-1.81,2.94-1.23L79.08,41.18,120.15,56.4l.55.21a1.8,1.8,0,0,1,1.37,1.71,1.83,1.83,0,0,1-1.15,1.77l-9.29,4.77-1.52.79c1.5,4,1.22,7.8-1.44,11.18s-6.26,4.61-10.56,4c-.17.42-.33.83-.48,1.25-.63,1.68-1.42,2.07-3.08,1.46L81,78.61c-.39-.15-.79-.28-1.27-.45-.4,1-.8,2.06-1.16,3.1a7.85,7.85,0,0,1-3.13,4,1.63,1.63,0,0,0-.52,1.2c0,6.15,0,12.31,0,18.47a8.37,8.37,0,0,1-.31,2.5A5.42,5.42,0,0,1,64,106c0-.64,0-1.29,0-2-.42,0-.77-.07-1.11-.07-7.49,0-15,0-22.48,0a1.31,1.31,0,0,0-1.35.8,8.44,8.44,0,0,1-5.16,4.2,1.11,1.11,0,0,0-.95,1.37,23.9,23.9,0,0,1,0,2.54,1.77,1.77,0,0,1-1.89,2c-2.38,0-4.76,0-7.14,0A2.23,2.23,0,0,1,22,113.52ZM40.81,52.11c.11.11.13.15.16.16Q58.86,58.84,76.76,65.4a1.21,1.21,0,0,0,1-.24c1.45-1.3,2.89-2.63,4.27-4a2.34,2.34,0,0,1,2.75-.56c5,1.85,9.94,3.64,14.9,5.51A2,2,0,0,0,101.5,66c4-2.08,8-4.14,12-6.21l2.18-1.14L47.67,33.42ZM98.39,69.49c-4.71-1.73-9.28-3.41-13.87-5.06a1.12,1.12,0,0,0-.89.26c-1.43,1.29-2.85,2.59-4.21,3.94a2.43,2.43,0,0,1-2.9.6c-7.37-2.75-14.77-5.44-22.16-8.15l-4.6-1.68-1.24,3.41,46.1,16.93C95.88,76.31,97.11,73,98.39,69.49Zm-27.22,30.7V96.64H40.39v3.55ZM29.28,111.1V85.74H25.71V111.1Zm47-34.21L66.06,73.13c-.28.74-.53,1.37-.76,2A15.42,15.42,0,0,0,64.66,77a3.52,3.52,0,0,0,2,4.11,40.24,40.24,0,0,0,3.93,1.44,3.46,3.46,0,0,0,4.15-1.73C75.36,79.58,75.77,78.27,76.31,76.89Zm30.42-9.51a7.84,7.84,0,0,1-1.09.54,6.72,6.72,0,0,0-4.81,5.38,33,33,0,0,1-1.42,4A7.15,7.15,0,0,0,106.73,67.38ZM33,105.36c1.84-.74,3.15-2,3.38-3.74a25.38,25.38,0,0,0,0-6.4A4.74,4.74,0,0,0,33,91.47ZM67.66,85.43V92.9h3.53V86.41Zm-.08,18.49c.09,1.28-.35,2.58,1,3.34a1.63,1.63,0,0,0,2-.19c1-.88.64-2,.66-3.15Z"/><path class="cls-2" d="M65.93,57.56l-3.39-1.24,1.23-3.42,3.41,1.26Z"/><path class="cls-2" d="M70.61,55.42,74,56.67l-1.25,3.4-3.4-1.25Z"/><path class="cls-2" d="M60.36,51.64,59.1,55.05l-3.4-1.24,1.24-3.4Z"/></g></g></svg>