<svg xmlns="http://www.w3.org/2000/svg" viewBox="0 0 96 96"><defs><style>.cls-1{fill:#fff;}.cls-2{fill:#0cb8d8;}</style></defs><title>CCTV 98</title><g id="Layer_2" data-name="Layer 2"><g id="google_site" data-name="google site"><rect class="cls-1" width="96" height="96" rx="17.76"/><path class="cls-2" d="M13,55.81A1.88,1.88,0,0,1,14.83,55c1.45.06,2.91,0,4.37,0,1,0,1.49.46,1.5,1.5V58.9a6.57,6.57,0,0,1,4.45,3.46.66.66,0,0,0,.48.26c5.49,0,11,0,16.46,0a1.54,1.54,0,0,0,.28-.07V61.36c0-1.58,0-3.15,0-4.72a1.21,1.21,0,0,0-.36-.79,5.05,5.05,0,0,1-1.44-5.59c.27-.77.56-1.53.87-2.38l-3.21-1.19-8.38-3.07c-1.12-.41-1.37-1-1-2.11L30,38.3c-.32-.13-.61-.25-.89-.35l-4.87-1.79a1.29,1.29,0,0,1-.88-1.88q2.76-7.56,5.54-15.1c.38-1,1-1.26,2.06-.86l21.92,8.12,28.7,10.64.38.14a1.26,1.26,0,0,1,1,1.19,1.27,1.27,0,0,1-.81,1.24L75.66,43l-1,.56a7.7,7.7,0,0,1-8.39,10.64c-.12.29-.23.58-.34.87-.43,1.18-1,1.45-2.15,1l-9.47-3.48-.89-.31c-.28.73-.56,1.44-.81,2.17a5.5,5.5,0,0,1-2.19,2.79,1.13,1.13,0,0,0-.36.84c0,4.3,0,8.6,0,12.9a5.68,5.68,0,0,1-.22,1.75,3.78,3.78,0,0,1-7.37-1c0-.45,0-.91,0-1.43-.29,0-.53,0-.77,0H25.9a.92.92,0,0,0-.94.55,5.88,5.88,0,0,1-3.61,2.94.77.77,0,0,0-.66,1c0,.59,0,1.19,0,1.78a1.24,1.24,0,0,1-1.33,1.39c-1.66,0-3.32,0-5,0A1.56,1.56,0,0,1,13,77ZM26.18,34.08l.11.11q12.51,4.59,25,9.17A.83.83,0,0,0,52,43.2c1-.92,2-1.84,3-2.8a1.61,1.61,0,0,1,1.91-.4c3.47,1.3,7,2.55,10.42,3.85a1.44,1.44,0,0,0,1.28-.07c2.8-1.46,5.61-2.9,8.42-4.35l1.52-.79L31,21ZM66.41,46.22c-3.29-1.21-6.48-2.38-9.69-3.53a.74.74,0,0,0-.62.18c-1,.9-2,1.8-2.94,2.75a1.7,1.7,0,0,1-2,.42c-5.15-1.92-10.32-3.8-15.48-5.7l-3.21-1.17-.87,2.38L63.78,53.38Zm-19,21.45V65.19H25.89v2.48ZM18.13,75.3V57.57h-2.5V75.3ZM51,51.39l-7.16-2.63c-.19.52-.37,1-.53,1.4s-.34.85-.45,1.29a2.47,2.47,0,0,0,1.43,2.87,28.94,28.94,0,0,0,2.74,1,2.42,2.42,0,0,0,2.9-1.21C50.32,53.27,50.61,52.36,51,51.39Zm21.26-6.64a7.68,7.68,0,0,1-.76.38,4.68,4.68,0,0,0-3.36,3.75,22.77,22.77,0,0,1-1,2.8A5,5,0,0,0,72.24,44.75ZM20.72,71.28a3.35,3.35,0,0,0,2.36-2.61,17.6,17.6,0,0,0,0-4.47,3.31,3.31,0,0,0-2.36-2.62ZM44.94,57.36v5.22h2.47V58Zm-.06,12.92c.07.9-.24,1.8.7,2.33A1.15,1.15,0,0,0,47,72.48c.71-.62.44-1.43.46-2.2Z"/><path class="cls-2" d="M43.73,37.88,41.37,37l.86-2.39,2.38.88Z"/><path class="cls-2" d="M47,36.39l2.38.87-.87,2.38-2.38-.87Z"/><path class="cls-2" d="M39.84,33.75,39,36.13l-2.37-.86.86-2.38Z"/></g></g></svg>